<svg id="visual" viewBox="0 0 900 600" width="900" height="600" xmlns="http://www.w3.org/2000/svg" xmlns:xlink="http://www.w3.org/1999/xlink" version="1.1"><g><g transform="translate(421 100)"><path d="M0 -77.2L66.9 -38.6L66.9 38.6L0 77.2L-66.9 38.6L-66.9 -38.6Z" fill="none" stroke="#297EA6" stroke-width="2"></path></g><g transform="translate(174 485)"><path d="M0 -9L7.8 -4.5L7.8 4.5L0 9L-7.8 4.5L-7.8 -4.5Z" fill="none" stroke="#297EA6" stroke-width="2"></path></g><g transform="translate(766 544)"><path d="M0 -69L59.8 -34.5L59.8 34.5L0 69L-59.8 34.5L-59.8 -34.5Z" stroke="#297EA6" fill="none" stroke-width="2"></path></g><g transform="translate(499 304)"><path d="M0 -24L20.8 -12L20.8 12L0 24L-20.8 12L-20.8 -12Z" stroke="#297EA6" fill="none" stroke-width="2"></path></g><g transform="translate(693 205)"><path d="M0 -39L33.8 -19.5L33.8 19.5L0 39L-33.8 19.5L-33.8 -19.5Z" stroke="#297EA6" fill="none" stroke-width="2"></path></g><g transform="translate(293 332)"><path d="M0 -60L52 -30L52 30L0 60L-52 30L-52 -30Z" stroke="#297EA6" fill="none" stroke-width="2"></path></g><g transform="translate(197 27)"><path d="M0 -25L21.7 -12.5L21.7 12.5L0 25L-21.7 12.5L-21.7 -12.5Z" stroke="#297EA6" fill="none" stroke-width="2"></path></g><g transform="translate(47 574)"><path d="M0 -54L46.8 -27L46.8 27L0 54L-46.8 27L-46.8 -27Z" stroke="#297EA6" fill="none" stroke-width="2"></path></g><g transform="translate(879 214)"><path d="M0 -73L63.2 -36.5L63.2 36.5L0 73L-63.2 36.5L-63.2 -36.5Z" stroke="#297EA6" fill="none" stroke-width="2"></path></g><g transform="translate(630 415)"><path d="M0 -45L39 -22.5L39 22.5L0 45L-39 22.5L-39 -22.5Z" stroke="#297EA6" fill="none" stroke-width="2"></path></g><g transform="translate(189 207)"><path d="M0 -58L50.2 -29L50.2 29L0 58L-50.2 29L-50.2 -29Z" stroke="#297EA6" fill="none" stroke-width="2"></path></g><g transform="translate(491 503)"><path d="M0 -21L18.2 -10.5L18.2 10.5L0 21L-18.2 10.5L-18.2 -10.5Z" stroke="#297EA6" fill="none" stroke-width="2"></path></g><g transform="translate(668 38)"><path d="M0 -34L29.4 -17L29.4 17L0 34L-29.4 17L-29.4 -17Z" stroke="#297EA6" fill="none" stroke-width="2"></path></g><g transform="translate(15 143)"><path d="M0 -49L42.4 -24.5L42.4 24.5L0 49L-42.4 24.5L-42.4 -24.5Z" stroke="#297EA6" fill="none" stroke-width="2"></path></g><g transform="translate(338 554)"><path d="M0 -48L41.6 -24L41.6 24L0 48L-41.6 24L-41.6 -24Z" stroke="#297EA6" fill="none" stroke-width="2"></path></g><g transform="translate(778 364)"><path d="M0 -42L36.4 -21L36.4 21L0 42L-36.4 21L-36.4 -21Z" stroke="#297EA6" fill="none" stroke-width="2"></path></g><g transform="translate(844 38)"><path d="M0 -11L9.5 -5.5L9.5 5.5L0 11L-9.5 5.5L-9.5 -5.5Z" stroke="#297EA6" fill="none" stroke-width="2"></path></g><g transform="translate(20 348)"><path d="M0 -45L39 -22.5L39 22.5L0 45L-39 22.5L-39 -22.5Z" stroke="#297EA6" fill="none" stroke-width="2"></path></g></g></svg>